<?xml version="1.0" encoding="UTF-8" standalone="no"?>
<!DOCTYPE svg PUBLIC "-//W3C//DTD SVG 1.1//EN" "http://www.w3.org/Graphics/SVG/1.1/DTD/svg11.dtd">
<svg width="100%" height="100%" viewBox="0 0 719 719" version="1.1" xmlns="http://www.w3.org/2000/svg" xmlns:xlink="http://www.w3.org/1999/xlink" xml:space="preserve" style="fill-rule:evenodd;clip-rule:evenodd;stroke-linejoin:round;stroke-miterlimit:2;">
    <g>
        <g transform="matrix(0.232068,0,0,0.169924,86.356,277.208)">
            <g transform="matrix(1.35853,0,0,1,2792.58,-692.406)">
                <rect x="-633.827" y="0" width="310.995" height="2354" style="fill:rgb(245,185,156);"/>
            </g>
            <g transform="matrix(1.38624,0,0,1,2409.19,-692.406)">
                <rect x="-633.827" y="0" width="310.995" height="2354" style="fill:rgb(202,200,163);"/>
            </g>
            <g transform="matrix(1.37239,0,0,1,2012.38,-692.406)">
                <rect x="-633.827" y="0" width="310.995" height="2354" style="fill:rgb(155,211,168);"/>
            </g>
            <g transform="matrix(1.46938,0,0,1,1651.37,-692.406)">
                <rect x="-633.827" y="0" width="310.995" height="2354" style="fill:rgb(101,219,171);"/>
            </g>
            <g transform="matrix(1.35853,0,0,1,1223.24,-692.406)">
                <rect x="-633.827" y="0" width="310.995" height="2354" style="fill:rgb(47,223,173);"/>
            </g>
            <g transform="matrix(1.26154,0,0,1,799.598,-692.406)">
                <rect x="-633.827" y="0" width="310.995" height="2354" style="fill:rgb(1,224,174);"/>
            </g>
        </g>
        <g transform="matrix(0.64145,0,0,0.64145,116.549,390.998)">
            <g transform="matrix(150.349,0,0,150.349,0,0)">
                <path d="M0.459,-0.276L0.336,-0.588L0.213,-0.276L0.459,-0.276ZM0.568,-0L0.489,-0.2L0.183,-0.2L0.104,-0L0.008,-0L0.295,-0.723L0.396,-0.723L0.679,-0L0.568,-0Z" style="fill:white;fill-rule:nonzero;"/>
            </g>
            <g transform="matrix(150.349,0,0,150.349,103.732,0)">
                <path d="M0.096,-0L0.096,-0.53L0.192,-0.53L0.192,-0.431C0.243,-0.505 0.305,-0.542 0.379,-0.542C0.425,-0.542 0.461,-0.527 0.489,-0.498C0.516,-0.469 0.53,-0.43 0.53,-0.381L0.53,-0L0.434,-0L0.434,-0.35C0.434,-0.389 0.428,-0.417 0.416,-0.434C0.405,-0.451 0.386,-0.459 0.359,-0.459C0.3,-0.459 0.244,-0.42 0.192,-0.343L0.192,-0L0.096,-0Z" style="fill:white;fill-rule:nonzero;"/>
            </g>
            <g transform="matrix(150.349,0,0,150.349,197.039,0)">
                <path d="M0.255,0.012C0.207,0.012 0.168,-0.002 0.141,-0.03C0.114,-0.058 0.1,-0.097 0.1,-0.146L0.1,-0.458L0.034,-0.458L0.034,-0.53L0.1,-0.53L0.1,-0.626L0.196,-0.636L0.196,-0.53L0.335,-0.53L0.335,-0.458L0.196,-0.458L0.196,-0.164C0.196,-0.095 0.226,-0.06 0.286,-0.06C0.299,-0.06 0.314,-0.062 0.333,-0.066L0.333,-0C0.303,0.008 0.277,0.012 0.255,0.012Z" style="fill:white;fill-rule:nonzero;"/>
            </g>
            <g transform="matrix(150.349,0,0,150.349,253.273,0)">
                <path d="M0.096,-0L0.096,-0.53L0.192,-0.53L0.192,-0L0.096,-0ZM0.096,-0.626L0.096,-0.723L0.192,-0.723L0.192,-0.626L0.096,-0.626Z" style="fill:white;fill-rule:nonzero;"/>
            </g>
            <g transform="matrix(150.349,0,0,150.349,296.734,0)">
                <path d="M0.096,0.193L0.096,-0.53L0.192,-0.53L0.192,-0.431C0.232,-0.505 0.291,-0.542 0.37,-0.542C0.433,-0.542 0.484,-0.519 0.52,-0.472C0.557,-0.426 0.575,-0.362 0.575,-0.281C0.575,-0.193 0.554,-0.122 0.513,-0.069C0.471,-0.015 0.417,0.012 0.349,0.012C0.286,0.012 0.234,-0.012 0.192,-0.06L0.192,0.193L0.096,0.193ZM0.192,-0.126C0.242,-0.082 0.289,-0.06 0.334,-0.06C0.426,-0.06 0.473,-0.131 0.473,-0.271C0.473,-0.396 0.432,-0.458 0.35,-0.458C0.296,-0.458 0.243,-0.429 0.192,-0.371L0.192,-0.126Z" style="fill:white;fill-rule:nonzero;"/>
            </g>
            <g transform="matrix(150.349,0,0,150.349,391.363,0)">
                <path d="M0.37,-0.067C0.312,-0.014 0.257,0.012 0.203,0.012C0.159,0.012 0.123,-0.002 0.094,-0.029C0.065,-0.057 0.05,-0.091 0.05,-0.133C0.05,-0.191 0.075,-0.236 0.123,-0.267C0.172,-0.298 0.242,-0.313 0.333,-0.313L0.355,-0.313L0.355,-0.377C0.355,-0.439 0.324,-0.47 0.261,-0.47C0.21,-0.47 0.155,-0.454 0.096,-0.423L0.096,-0.502C0.161,-0.529 0.222,-0.542 0.278,-0.542C0.338,-0.542 0.381,-0.529 0.409,-0.502C0.438,-0.475 0.452,-0.434 0.452,-0.377L0.452,-0.137C0.452,-0.082 0.469,-0.055 0.502,-0.055C0.507,-0.055 0.513,-0.055 0.521,-0.057L0.528,-0.003C0.506,0.007 0.482,0.012 0.456,0.012C0.411,0.012 0.382,-0.014 0.37,-0.067ZM0.355,-0.12L0.355,-0.257L0.323,-0.258C0.271,-0.258 0.228,-0.248 0.195,-0.228C0.163,-0.208 0.146,-0.181 0.146,-0.149C0.146,-0.126 0.155,-0.106 0.171,-0.09C0.187,-0.074 0.207,-0.066 0.23,-0.066C0.271,-0.066 0.312,-0.084 0.355,-0.12Z" style="fill:white;fill-rule:nonzero;"/>
            </g>
            <g transform="matrix(150.349,0,0,150.349,474.392,0)">
                <rect x="0.096" y="-0.771" width="0.096" height="0.771" style="fill:white;fill-rule:nonzero;"/>
            </g>
            <g transform="matrix(150.349,0,0,150.349,517.852,0)">
                <path d="M0.485,-0.017C0.42,0.002 0.365,0.012 0.319,0.012C0.241,0.012 0.177,-0.014 0.128,-0.066C0.079,-0.118 0.054,-0.185 0.054,-0.268C0.054,-0.348 0.076,-0.414 0.119,-0.465C0.163,-0.517 0.218,-0.542 0.286,-0.542C0.35,-0.542 0.4,-0.52 0.435,-0.474C0.47,-0.429 0.487,-0.364 0.487,-0.28L0.487,-0.25L0.152,-0.25C0.166,-0.124 0.228,-0.061 0.337,-0.061C0.377,-0.061 0.427,-0.072 0.485,-0.093L0.485,-0.017ZM0.157,-0.322L0.391,-0.322C0.391,-0.421 0.354,-0.47 0.28,-0.47C0.206,-0.47 0.165,-0.421 0.157,-0.322Z" style="fill:white;fill-rule:nonzero;"/>
            </g>
            <g transform="matrix(150.349,0,0,150.349,601.616,0)">
                <path d="M0.255,0.012C0.207,0.012 0.168,-0.002 0.141,-0.03C0.114,-0.058 0.1,-0.097 0.1,-0.146L0.1,-0.458L0.034,-0.458L0.034,-0.53L0.1,-0.53L0.1,-0.626L0.196,-0.636L0.196,-0.53L0.335,-0.53L0.335,-0.458L0.196,-0.458L0.196,-0.164C0.196,-0.095 0.226,-0.06 0.286,-0.06C0.299,-0.06 0.314,-0.062 0.333,-0.066L0.333,-0C0.303,0.008 0.277,0.012 0.255,0.012Z" style="fill:white;fill-rule:nonzero;"/>
            </g>
            <g transform="matrix(150.349,0,0,150.349,657.85,0)">
                <path d="M0.255,0.012C0.207,0.012 0.168,-0.002 0.141,-0.03C0.114,-0.058 0.1,-0.097 0.1,-0.146L0.1,-0.458L0.034,-0.458L0.034,-0.53L0.1,-0.53L0.1,-0.626L0.196,-0.636L0.196,-0.53L0.335,-0.53L0.335,-0.458L0.196,-0.458L0.196,-0.164C0.196,-0.095 0.226,-0.06 0.286,-0.06C0.299,-0.06 0.314,-0.062 0.333,-0.066L0.333,-0C0.303,0.008 0.277,0.012 0.255,0.012Z" style="fill:white;fill-rule:nonzero;"/>
            </g>
            <g transform="matrix(150.349,0,0,150.349,714.084,0)">
                <path d="M0.485,-0.017C0.42,0.002 0.365,0.012 0.319,0.012C0.241,0.012 0.177,-0.014 0.128,-0.066C0.079,-0.118 0.054,-0.185 0.054,-0.268C0.054,-0.348 0.076,-0.414 0.119,-0.465C0.163,-0.517 0.218,-0.542 0.286,-0.542C0.35,-0.542 0.4,-0.52 0.435,-0.474C0.47,-0.429 0.487,-0.364 0.487,-0.28L0.487,-0.25L0.152,-0.25C0.166,-0.124 0.228,-0.061 0.337,-0.061C0.377,-0.061 0.427,-0.072 0.485,-0.093L0.485,-0.017ZM0.157,-0.322L0.391,-0.322C0.391,-0.421 0.354,-0.47 0.28,-0.47C0.206,-0.47 0.165,-0.421 0.157,-0.322Z" style="fill:white;fill-rule:nonzero;"/>
            </g>
        </g>
        <g transform="matrix(0.64145,0,0,0.64145,110.549,384.998)">
            <g transform="matrix(150.349,0,0,150.349,0,0)">
                <path d="M0.459,-0.276L0.336,-0.588L0.213,-0.276L0.459,-0.276ZM0.568,-0L0.489,-0.2L0.183,-0.2L0.104,-0L0.008,-0L0.295,-0.723L0.396,-0.723L0.679,-0L0.568,-0Z" style="fill-rule:nonzero;"/>
            </g>
            <g transform="matrix(150.349,0,0,150.349,103.732,0)">
                <path d="M0.096,-0L0.096,-0.53L0.192,-0.53L0.192,-0.431C0.243,-0.505 0.305,-0.542 0.379,-0.542C0.425,-0.542 0.461,-0.527 0.489,-0.498C0.516,-0.469 0.53,-0.43 0.53,-0.381L0.53,-0L0.434,-0L0.434,-0.35C0.434,-0.389 0.428,-0.417 0.416,-0.434C0.405,-0.451 0.386,-0.459 0.359,-0.459C0.3,-0.459 0.244,-0.42 0.192,-0.343L0.192,-0L0.096,-0Z" style="fill-rule:nonzero;"/>
            </g>
            <g transform="matrix(150.349,0,0,150.349,197.039,0)">
                <path d="M0.255,0.012C0.207,0.012 0.168,-0.002 0.141,-0.03C0.114,-0.058 0.1,-0.097 0.1,-0.146L0.1,-0.458L0.034,-0.458L0.034,-0.53L0.1,-0.53L0.1,-0.626L0.196,-0.636L0.196,-0.53L0.335,-0.53L0.335,-0.458L0.196,-0.458L0.196,-0.164C0.196,-0.095 0.226,-0.06 0.286,-0.06C0.299,-0.06 0.314,-0.062 0.333,-0.066L0.333,-0C0.303,0.008 0.277,0.012 0.255,0.012Z" style="fill-rule:nonzero;"/>
            </g>
            <g transform="matrix(150.349,0,0,150.349,253.273,0)">
                <path d="M0.096,-0L0.096,-0.53L0.192,-0.53L0.192,-0L0.096,-0ZM0.096,-0.626L0.096,-0.723L0.192,-0.723L0.192,-0.626L0.096,-0.626Z" style="fill-rule:nonzero;"/>
            </g>
            <g transform="matrix(150.349,0,0,150.349,296.734,0)">
                <path d="M0.096,0.193L0.096,-0.53L0.192,-0.53L0.192,-0.431C0.232,-0.505 0.291,-0.542 0.37,-0.542C0.433,-0.542 0.484,-0.519 0.52,-0.472C0.557,-0.426 0.575,-0.362 0.575,-0.281C0.575,-0.193 0.554,-0.122 0.513,-0.069C0.471,-0.015 0.417,0.012 0.349,0.012C0.286,0.012 0.234,-0.012 0.192,-0.06L0.192,0.193L0.096,0.193ZM0.192,-0.126C0.242,-0.082 0.289,-0.06 0.334,-0.06C0.426,-0.06 0.473,-0.131 0.473,-0.271C0.473,-0.396 0.432,-0.458 0.35,-0.458C0.296,-0.458 0.243,-0.429 0.192,-0.371L0.192,-0.126Z" style="fill-rule:nonzero;"/>
            </g>
            <g transform="matrix(150.349,0,0,150.349,391.363,0)">
                <path d="M0.37,-0.067C0.312,-0.014 0.257,0.012 0.203,0.012C0.159,0.012 0.123,-0.002 0.094,-0.029C0.065,-0.057 0.05,-0.091 0.05,-0.133C0.05,-0.191 0.075,-0.236 0.123,-0.267C0.172,-0.298 0.242,-0.313 0.333,-0.313L0.355,-0.313L0.355,-0.377C0.355,-0.439 0.324,-0.47 0.261,-0.47C0.21,-0.47 0.155,-0.454 0.096,-0.423L0.096,-0.502C0.161,-0.529 0.222,-0.542 0.278,-0.542C0.338,-0.542 0.381,-0.529 0.409,-0.502C0.438,-0.475 0.452,-0.434 0.452,-0.377L0.452,-0.137C0.452,-0.082 0.469,-0.055 0.502,-0.055C0.507,-0.055 0.513,-0.055 0.521,-0.057L0.528,-0.003C0.506,0.007 0.482,0.012 0.456,0.012C0.411,0.012 0.382,-0.014 0.37,-0.067ZM0.355,-0.12L0.355,-0.257L0.323,-0.258C0.271,-0.258 0.228,-0.248 0.195,-0.228C0.163,-0.208 0.146,-0.181 0.146,-0.149C0.146,-0.126 0.155,-0.106 0.171,-0.09C0.187,-0.074 0.207,-0.066 0.23,-0.066C0.271,-0.066 0.312,-0.084 0.355,-0.12Z" style="fill-rule:nonzero;"/>
            </g>
            <g transform="matrix(150.349,0,0,150.349,474.392,0)">
                <rect x="0.096" y="-0.771" width="0.096" height="0.771" style="fill-rule:nonzero;"/>
            </g>
            <g transform="matrix(150.349,0,0,150.349,517.852,0)">
                <path d="M0.485,-0.017C0.42,0.002 0.365,0.012 0.319,0.012C0.241,0.012 0.177,-0.014 0.128,-0.066C0.079,-0.118 0.054,-0.185 0.054,-0.268C0.054,-0.348 0.076,-0.414 0.119,-0.465C0.163,-0.517 0.218,-0.542 0.286,-0.542C0.35,-0.542 0.4,-0.52 0.435,-0.474C0.47,-0.429 0.487,-0.364 0.487,-0.28L0.487,-0.25L0.152,-0.25C0.166,-0.124 0.228,-0.061 0.337,-0.061C0.377,-0.061 0.427,-0.072 0.485,-0.093L0.485,-0.017ZM0.157,-0.322L0.391,-0.322C0.391,-0.421 0.354,-0.47 0.28,-0.47C0.206,-0.47 0.165,-0.421 0.157,-0.322Z" style="fill-rule:nonzero;"/>
            </g>
            <g transform="matrix(150.349,0,0,150.349,601.616,0)">
                <path d="M0.255,0.012C0.207,0.012 0.168,-0.002 0.141,-0.03C0.114,-0.058 0.1,-0.097 0.1,-0.146L0.1,-0.458L0.034,-0.458L0.034,-0.53L0.1,-0.53L0.1,-0.626L0.196,-0.636L0.196,-0.53L0.335,-0.53L0.335,-0.458L0.196,-0.458L0.196,-0.164C0.196,-0.095 0.226,-0.06 0.286,-0.06C0.299,-0.06 0.314,-0.062 0.333,-0.066L0.333,-0C0.303,0.008 0.277,0.012 0.255,0.012Z" style="fill-rule:nonzero;"/>
            </g>
            <g transform="matrix(150.349,0,0,150.349,657.85,0)">
                <path d="M0.255,0.012C0.207,0.012 0.168,-0.002 0.141,-0.03C0.114,-0.058 0.1,-0.097 0.1,-0.146L0.1,-0.458L0.034,-0.458L0.034,-0.53L0.1,-0.53L0.1,-0.626L0.196,-0.636L0.196,-0.53L0.335,-0.53L0.335,-0.458L0.196,-0.458L0.196,-0.164C0.196,-0.095 0.226,-0.06 0.286,-0.06C0.299,-0.06 0.314,-0.062 0.333,-0.066L0.333,-0C0.303,0.008 0.277,0.012 0.255,0.012Z" style="fill-rule:nonzero;"/>
            </g>
            <g transform="matrix(150.349,0,0,150.349,714.084,0)">
                <path d="M0.485,-0.017C0.42,0.002 0.365,0.012 0.319,0.012C0.241,0.012 0.177,-0.014 0.128,-0.066C0.079,-0.118 0.054,-0.185 0.054,-0.268C0.054,-0.348 0.076,-0.414 0.119,-0.465C0.163,-0.517 0.218,-0.542 0.286,-0.542C0.35,-0.542 0.4,-0.52 0.435,-0.474C0.47,-0.429 0.487,-0.364 0.487,-0.28L0.487,-0.25L0.152,-0.25C0.166,-0.124 0.228,-0.061 0.337,-0.061C0.377,-0.061 0.427,-0.072 0.485,-0.093L0.485,-0.017ZM0.157,-0.322L0.391,-0.322C0.391,-0.421 0.354,-0.47 0.28,-0.47C0.206,-0.47 0.165,-0.421 0.157,-0.322Z" style="fill-rule:nonzero;"/>
            </g>
        </g>
    </g>
</svg>
