<svg width="100%" height="100%" viewBox="0 0 3000 3000" version="1.1" xmlns="http://www.w3.org/2000/svg" xmlns:xlink="http://www.w3.org/1999/xlink" xml:space="preserve" xmlns:serif="http://www.serif.com/" style="fill-rule:evenodd;clip-rule:evenodd;stroke-linejoin:round;stroke-miterlimit:2;"><path d="M1342.08,160.791l-0,2678.42c-0,87.159 70.762,157.922 157.921,157.922c87.159,-0 157.921,-70.763 157.921,-157.922l0,-2678.42c0,-87.159 -70.762,-157.922 -157.921,-157.922c-87.159,0 -157.921,70.763 -157.921,157.922Z" style="fill:#ffe334;"/><path d="M160.791,1657.92l2678.42,0c87.159,0 157.922,-70.762 157.922,-157.921c-0,-87.159 -70.763,-157.921 -157.922,-157.921l-2678.42,-0c-87.159,-0 -157.922,70.762 -157.922,157.921c0,87.159 70.763,157.921 157.922,157.921Z" style="fill:#ffe334;"/><path d="M1657.92,2839.21c0,0 -0.426,-418.276 -97.132,-765.981c-47.189,-169.666 -119.165,-322.245 -215.469,-418.548c-96.303,-96.304 -248.882,-168.28 -418.548,-215.469c-347.705,-96.706 -765.981,-97.132 -765.981,-97.132c-87.159,-0 -157.922,70.762 -157.922,157.921c0,87.159 70.763,157.921 157.922,157.921c-0,0 389.204,17.826 549.403,54.509c147.639,33.806 323.429,77.221 411.792,165.584c88.363,88.363 133.774,251.549 165.584,411.792c54.482,274.448 54.509,549.403 54.509,549.403c-0,87.159 70.762,157.922 157.921,157.922c87.159,-0 157.921,-70.763 157.921,-157.922Z" style="fill:url(#_Linear1);"/><path d="M1342.08,160.791c-0,-0 0.426,418.276 97.132,765.981c47.189,169.666 119.165,322.245 215.469,418.548c96.303,96.304 248.882,168.28 418.548,215.469c347.705,96.706 765.981,97.132 765.981,97.132c87.159,0 157.922,-70.762 157.922,-157.921c-0,-87.159 -70.763,-157.921 -157.922,-157.921c0,-0 -389.204,-17.826 -549.403,-54.509c-147.639,-33.806 -323.429,-77.221 -411.792,-165.584c-88.363,-88.363 -133.774,-251.549 -165.584,-411.792c-54.482,-274.448 -54.509,-549.403 -54.509,-549.403c0,-87.159 -70.762,-157.922 -157.921,-157.922c-87.159,0 -157.921,70.763 -157.921,157.922Zm-0,-0l-0,-0l-0,-0Z" style="fill:url(#_Linear2);"/><defs><linearGradient id="_Linear1" x1="0" y1="0" x2="1" y2="0" gradientUnits="userSpaceOnUse" gradientTransform="matrix(-1339.21,-1339.21,-403.258,403.258,1701.63,2637.58)"><stop offset="0" style="stop-color:#71cc44;stop-opacity:1"/><stop offset="1" style="stop-color:#0fb8b6;stop-opacity:1"/></linearGradient><linearGradient id="_Linear2" x1="0" y1="0" x2="1" y2="0" gradientUnits="userSpaceOnUse" gradientTransform="matrix(1339.21,1339.21,403.258,-403.258,1298.37,362.42)"><stop offset="0" style="stop-color:#fd8e12;stop-opacity:1"/><stop offset="1" style="stop-color:#d92628;stop-opacity:1"/></linearGradient></defs></svg>
