<?xml version="1.0" encoding="UTF-8" standalone="no"?><!DOCTYPE svg PUBLIC "-//W3C//DTD SVG 1.1//EN" "http://www.w3.org/Graphics/SVG/1.1/DTD/svg11.dtd"><svg width="100%" height="100%" viewBox="0 0 719 719" version="1.1" xmlns="http://www.w3.org/2000/svg" xmlns:xlink="http://www.w3.org/1999/xlink" style="fill-rule:evenodd;clip-rule:evenodd;stroke-linejoin:round;stroke-miterlimit:2;"><g><g transform="matrix(0.232068,0,0,0.169924,86.356,277.208)"><g transform="matrix(1.26154,0,0,1,2761.27,-692.406)"><rect x="-633.827" y="0" width="310.995" height="2354" style="fill:rgb(245,185,156);"/></g><g transform="matrix(1.26154,0,0,1,2368.93,-692.406)"><rect x="-633.827" y="0" width="310.995" height="2354" style="fill:rgb(202,200,163);"/></g><g transform="matrix(1.26154,0,0,1,1976.6,-692.406)"><rect x="-633.827" y="0" width="310.995" height="2354" style="fill:rgb(155,211,168);"/></g><g transform="matrix(1.26154,0,0,1,1584.27,-692.406)"><rect x="-633.827" y="0" width="310.995" height="2354" style="fill:rgb(101,219,171);"/></g><g transform="matrix(1.26154,0,0,1,1191.93,-692.406)"><rect x="-633.827" y="0" width="310.995" height="2354" style="fill:rgb(47,223,173);"/></g><g transform="matrix(1.26154,0,0,1,799.598,-692.406)"><rect x="-633.827" y="0" width="310.995" height="2354" style="fill:rgb(1,224,174);"/></g></g><g transform="matrix(1,0,0,1,-1,6.74453)"><g transform="matrix(0.64145,0,0,0.64145,27.2859,123.937)"><text x="140.717px" y="405.825px" style="font-family:'Ubuntu-Regular', 'Ubuntu', sans-serif;font-size:150.349px;fill:white;">Antipalett<tspan x="836.683px " y="405.825px ">e</tspan></text></g><g transform="matrix(0.64145,0,0,0.64145,21.2859,117.937)"><text x="140.717px" y="405.825px" style="font-family:'Ubuntu-Regular', 'Ubuntu', sans-serif;font-size:150.349px;">Antipalett<tspan x="836.683px " y="405.825px ">e</tspan></text></g></g></g></svg>
