<?xml version="1.0" encoding="UTF-8" standalone="no"?>
<!DOCTYPE svg PUBLIC "-//W3C//DTD SVG 1.1//EN" "http://www.w3.org/Graphics/SVG/1.1/DTD/svg11.dtd">
<svg width="100%" height="100%" viewBox="0 0 719 719" version="1.1" xmlns="http://www.w3.org/2000/svg" xmlns:xlink="http://www.w3.org/1999/xlink" style="fill-rule:evenodd;clip-rule:evenodd;stroke-linecap:round;stroke-miterlimit:10;">
    <g transform="matrix(4.73348,0,0,4.73348,63.6574,63.6574)">
        <rect x="0" y="0" width="125" height="125"/>
        <path d="M111,53L113.121,51.879L112,54L113.121,56.121L111,55L108.879,56.121L110,54L108.879,51.879L111,53Z" style="fill:white;fill-rule:nonzero;"/>
        <path d="M55,85L56.414,85.586L57,87L56.414,88.414L55,89L53.586,88.414L53,87L53.586,85.586L55,85Z" style="fill:white;fill-rule:nonzero;"/>
        <path d="M32,85L32.765,86.152L34.121,85.879L33.848,87.235L35,88L33.848,88.765L34.121,90.121L32.765,89.848L32,91L31.235,89.848L29.879,90.121L30.152,88.765L29,88L30.152,87.235L29.879,85.879L31.235,86.152L32,85Z" style="fill:white;fill-rule:nonzero;"/>
        <g transform="matrix(1,0,0,1,-14.8787,36.2587)">
            <path d="M123,-2L125.121,-2.121L125,0L125.121,2.121L123,2L120.879,2.121L121,0L120.879,-2.121L123,-2Z" style="fill:white;fill-rule:nonzero;"/>
        </g>
        <path d="M79,15L80.763,15.573L81.853,17.073L81.853,18.927L80.763,20.427L79,21L77.237,20.427L76.147,18.927L76.147,17.073L77.237,15.573L79,15Z" style="fill:white;fill-rule:nonzero;"/>
        <path d="M50,32L52.598,33.5L52.598,36.5L50,38L47.402,36.5L47.402,33.5L50,32Z" style="fill:white;fill-rule:nonzero;"/>
        <path d="M37,82L38.414,81.586L38,83L38.414,84.414L37,84L35.586,84.414L36,83L35.586,81.586L37,82Z" style="fill:white;fill-rule:nonzero;"/>
        <path d="M47,45L47,48L47,45Z" style="fill:white;fill-rule:nonzero;"/>
        <path d="M48,70L49.763,69.573L49.902,71.382L50.853,72.927L49.176,73.618L48,75L46.824,73.618L45.147,72.927L46.098,71.382L46.237,69.573L48,70Z" style="fill:white;fill-rule:nonzero;"/>
        <g transform="matrix(1,0,0,1,-28.9577,-7.2583)">
            <path d="M88,124L89.148,122.228L88.707,124.293L90.772,123.852L89,125L90.772,126.148L88.707,125.707L89.148,127.772L88,126L86.852,127.772L87.293,125.707L85.228,126.148L87,125L85.228,123.852L87.293,124.293L86.852,122.228L88,124Z" style="fill:white;fill-rule:nonzero;"/>
        </g>
        <path d="M121,10L121.765,10.152L122.414,10.586L122.848,11.235L123,12L122.848,12.765L122.414,13.414L121.765,13.848L121,14L120.235,13.848L119.586,13.414L119.152,12.765L119,12L119.152,11.235L119.586,10.586L120.235,10.152L121,10Z" style="fill:white;fill-rule:nonzero;"/>
        <path d="M33,103L33.868,102.198L33.782,103.377L34.95,103.555L33.975,104.223L34.564,105.247L33.434,104.901L33,106L32.566,104.901L31.436,105.247L32.025,104.223L31.05,103.555L32.218,103.377L32.132,102.198L33,103Z" style="fill:white;fill-rule:nonzero;"/>
        <path d="M95,68L95.707,69.293L97,70L95.707,70.707L95,72L94.293,70.707L93,70L94.293,69.293L95,68Z" style="fill:white;fill-rule:nonzero;"/>
        <path d="M116,4L116.588,4.191L116.951,4.691L116.951,5.309L116.588,5.809L116,6L115.412,5.809L115.049,5.309L115.049,4.691L115.412,4.191L116,4Z" style="fill:white;fill-rule:nonzero;"/>
        <path d="M53,94L53.866,96.5L55.598,98.5L53,98L50.402,98.5L52.134,96.5L53,94Z" style="fill:white;fill-rule:nonzero;"/>
        <path d="M30,30L30.383,32.076L32.121,30.879L30.924,32.617L33,33L30.924,33.383L32.121,35.121L30.383,33.924L30,36L29.617,33.924L27.879,35.121L29.076,33.383L27,33L29.076,32.617L27.879,30.879L29.617,32.076L30,30Z" style="fill:white;fill-rule:nonzero;"/>
        <path d="M91,4L92.414,4.586L93,6L92.414,7.414L91,8L89.586,7.414L89,6L89.586,4.586L91,4Z" style="fill:white;fill-rule:nonzero;"/>
        <g transform="matrix(1,0,0,1,78.6164,17.9059)">
            <path d="M36,99L36.765,99.152L37.414,99.586L37.848,100.235L38,101L37.848,101.765L37.414,102.414L36.765,102.848L36,103L35.235,102.848L34.586,102.414L34.152,101.765L34,101L34.152,100.235L34.586,99.586L35.235,99.152L36,99Z" style="fill:white;fill-rule:nonzero;"/>
        </g>
        <g transform="matrix(1,0,0,1,-12.4997,-0.99999)">
            <path d="M85,112L86.414,113.586L88,115L86.414,116.414L85,118L83.586,116.414L82,115L83.586,113.586L85,112Z" style="fill:white;fill-rule:nonzero;"/>
        </g>
        <path d="M23,9L24.414,10.586L26,12L24.414,13.414L23,15L21.586,13.414L20,12L21.586,10.586L23,9Z" style="fill:white;fill-rule:nonzero;"/>
        <path d="M91,93L92.5,93.402L93.598,94.5L94,96L93.598,97.5L92.5,98.598L91,99L89.5,98.598L88.402,97.5L88,96L88.402,94.5L89.5,93.402L91,93Z" style="fill:white;fill-rule:nonzero;"/>
        <path d="M14,75L17,77L14,79L11,77L14,75Z" style="fill:white;fill-rule:nonzero;"/>
        <path d="M105,30L105,34L105,30Z" style="fill:white;fill-rule:nonzero;"/>
        <path d="M84,107L85.176,107.382L85.902,108.382L85.902,109.618L85.176,110.618L84,111L82.824,110.618L82.098,109.618L82.098,108.382L82.824,107.382L84,107Z" style="fill:white;fill-rule:nonzero;"/>
        <path d="M6,19L6.434,20.099L7.564,19.753L6.975,20.777L7.95,21.445L6.782,21.623L6.868,22.802L6,22L5.132,22.802L5.218,21.623L4.05,21.445L5.025,20.777L4.436,19.753L5.566,20.099L6,19Z" style="fill:white;fill-rule:nonzero;"/>
        <path d="M80,47L80,51L80,47Z" style="fill:white;fill-rule:nonzero;"/>
        <g transform="matrix(1,0,0,1,4,1)">
            <path d="M0,33L0.707,33.293L1,34L0.707,34.707L0,35L-0.707,34.707L-1,34L-0.707,33.293L0,33Z" style="fill:white;fill-rule:nonzero;"/>
        </g>
        <path d="M46,3L47.302,3.297L48.345,4.13L48.925,5.332L48.925,6.668L48.345,7.87L47.302,8.703L46,9L44.698,8.703L43.655,7.87L43.075,6.668L43.075,5.332L43.655,4.13L44.698,3.297L46,3Z" style="fill:white;fill-rule:nonzero;"/>
        <path d="M18,111L20.598,110.5L18.866,112.5L18,115L17.134,112.5L15.402,110.5L18,111Z" style="fill:white;fill-rule:nonzero;"/>
        <g transform="matrix(1,0,0,1,-5.86306,16.25)">
            <path d="M125,80L126,81.268L127.598,81.5L127,83L127.598,84.5L126,84.732L125,86L124,84.732L122.402,84.5L123,83L122.402,81.5L124,81.268L125,80Z" style="fill:white;fill-rule:nonzero;"/>
        </g>
        <path d="M105,88L105.707,88.293L106,89L105.707,89.707L105,90L104.293,89.707L104,89L104.293,88.293L105,88Z" style="fill:white;fill-rule:nonzero;"/>
        <path d="M6,61L6.588,61.191L6.951,61.691L6.951,62.309L6.588,62.809L6,63L5.412,62.809L5.049,62.309L5.049,61.691L5.412,61.191L6,61Z" style="fill:white;fill-rule:nonzero;"/>
        <path d="M91,44L91,47L91,44Z" style="fill:white;fill-rule:nonzero;"/>
        <g transform="matrix(-0.981627,0.190809,-0.190809,-0.981627,38.3824,36.0078)">
            <path d="M25.039,-8.301C25.039,-7.168 24.775,-6.048 24.248,-4.941C23.721,-3.835 22.982,-2.897 22.031,-2.129C20.99,-1.296 19.775,-0.645 18.389,-0.176C17.002,0.293 15.332,0.527 13.379,0.527C11.283,0.527 9.398,0.332 7.725,-0.059C6.051,-0.449 4.349,-1.029 2.617,-1.797L2.617,-6.641L2.891,-6.641C4.362,-5.417 6.061,-4.473 7.988,-3.809C9.915,-3.145 11.725,-2.813 13.418,-2.813C15.814,-2.813 17.679,-3.262 19.014,-4.16C20.348,-5.059 21.016,-6.257 21.016,-7.754C21.016,-9.043 20.7,-9.993 20.068,-10.605C19.437,-11.217 18.477,-11.693 17.188,-12.031C16.211,-12.292 15.153,-12.507 14.014,-12.676C12.874,-12.845 11.667,-13.06 10.391,-13.32C7.813,-13.867 5.902,-14.801 4.658,-16.123C3.415,-17.445 2.793,-19.167 2.793,-21.289C2.793,-23.724 3.822,-25.719 5.879,-27.275C7.936,-28.831 10.547,-29.609 13.711,-29.609C15.755,-29.609 17.63,-29.414 19.336,-29.023C21.042,-28.633 22.552,-28.151 23.867,-27.578L23.867,-23.008L23.594,-23.008C22.487,-23.945 21.032,-24.723 19.229,-25.342C17.425,-25.96 15.579,-26.27 13.691,-26.27C11.621,-26.27 9.958,-25.84 8.701,-24.98C7.445,-24.121 6.816,-23.014 6.816,-21.66C6.816,-20.449 7.129,-19.499 7.754,-18.809C8.379,-18.118 9.479,-17.591 11.055,-17.227C11.888,-17.044 13.073,-16.823 14.609,-16.563C16.146,-16.302 17.448,-16.035 18.516,-15.762C20.677,-15.189 22.305,-14.323 23.398,-13.164C24.492,-12.005 25.039,-10.384 25.039,-8.301Z" style="fill:rgb(193,113,246);fill-rule:nonzero;stroke:rgb(233,56,61);stroke-width:2px;"/>
        </g>
        <g transform="matrix(0.5,0.866025,-0.866025,0.5,34.7646,52.8378)">
            <path d="M1.676,0L1.676,-16.395L6.867,-16.395C8.43,-16.395 9.676,-15.973 10.605,-15.129C11.535,-14.285 12,-13.152 12,-11.73C12,-10.777 11.762,-9.934 11.285,-9.199C10.809,-8.465 10.156,-7.932 9.328,-7.6C8.5,-7.268 7.313,-7.102 5.766,-7.102L4.031,-7.102L4.031,0L1.676,0ZM6.457,-14.309L4.031,-14.309L4.031,-9.188L6.598,-9.188C7.551,-9.188 8.285,-9.412 8.801,-9.861C9.316,-10.311 9.574,-10.953 9.574,-11.789C9.574,-13.469 8.535,-14.309 6.457,-14.309Z" style="fill:rgb(248,41,185);fill-rule:nonzero;stroke:rgb(89,93,85);stroke-width:3px;"/>
        </g>
        <g transform="matrix(0.48481,0.87462,-0.87462,0.48481,60.0781,50.4116)">
            <path d="M18.734,0L10.942,0L10.942,-0.936C11.628,-0.98 12.197,-1.068 12.65,-1.2C13.102,-1.332 13.329,-1.494 13.329,-1.688C13.329,-1.767 13.32,-1.863 13.302,-1.978C13.285,-2.092 13.258,-2.193 13.223,-2.281L11.667,-6.473L5.115,-6.473C4.869,-5.858 4.669,-5.322 4.515,-4.865C4.362,-4.408 4.223,-3.986 4.1,-3.599C3.986,-3.221 3.907,-2.914 3.863,-2.676C3.819,-2.439 3.797,-2.246 3.797,-2.096C3.797,-1.745 4.074,-1.472 4.627,-1.279C5.181,-1.085 5.805,-0.971 6.5,-0.936L6.5,0L-0.541,0L-0.541,-0.936C-0.312,-0.954 -0.026,-1.004 0.316,-1.088C0.659,-1.171 0.94,-1.283 1.16,-1.424C1.512,-1.661 1.784,-1.909 1.978,-2.169C2.171,-2.428 2.36,-2.786 2.544,-3.243C3.485,-5.59 4.522,-8.227 5.656,-11.153C6.79,-14.08 7.8,-16.686 8.688,-18.971L9.743,-18.971L15.979,-2.834C16.11,-2.492 16.26,-2.215 16.427,-2.004C16.594,-1.793 16.827,-1.586 17.125,-1.384C17.328,-1.261 17.591,-1.158 17.917,-1.074C18.242,-0.991 18.514,-0.945 18.734,-0.936L18.734,0ZM11.193,-7.646L8.358,-14.897L5.577,-7.646L11.193,-7.646Z" style="fill:rgb(199,208,224);fill-rule:nonzero;stroke:rgb(244,167,23);stroke-width:6px;stroke-linecap:butt;"/>
        </g>
        <g transform="matrix(0.898794,-0.438371,0.438371,0.898794,91.3007,65.1625)">
            <path d="M8.513,-15.487C9.344,-15.487 10.197,-15.363 11.073,-15.116C11.949,-14.869 12.44,-14.746 12.544,-14.746C12.762,-14.746 12.967,-14.806 13.162,-14.925C13.357,-15.045 13.492,-15.232 13.566,-15.487L14.049,-15.487L14.263,-10.321L13.735,-10.321C13.428,-11.347 13.027,-12.174 12.533,-12.803C11.59,-13.986 10.321,-14.577 8.726,-14.577C7.116,-14.577 5.801,-13.941 4.779,-12.668C3.757,-11.395 3.246,-9.643 3.246,-7.412C3.246,-5.361 3.783,-3.723 4.857,-2.499C5.932,-1.275 7.292,-0.663 8.939,-0.663C10.13,-0.663 11.227,-0.947 12.23,-1.516C12.806,-1.838 13.439,-2.325 14.128,-2.976L14.555,-2.549C14.046,-1.905 13.413,-1.34 12.657,-0.854C11.369,-0.03 9.973,0.382 8.468,0.382C5.997,0.382 4.035,-0.408 2.583,-1.988C1.243,-3.448 0.573,-5.271 0.573,-7.457C0.573,-9.696 1.28,-11.575 2.695,-13.095C4.185,-14.689 6.124,-15.487 8.513,-15.487Z" style="fill:rgb(187,181,60);fill-rule:nonzero;stroke:rgb(82,114,185);stroke-width:3px;"/>
        </g>
        <g transform="matrix(-1,-7.65714e-16,7.65714e-16,-1,123.567,51.7)">
            <g transform="matrix(18,0,0,18,0,0)">
                <path d="M0.651,-0.615L0.651,-0.582C0.651,-0.568 0.648,-0.56 0.643,-0.556C0.637,-0.553 0.618,-0.543 0.584,-0.527C0.55,-0.512 0.517,-0.493 0.486,-0.472C0.498,-0.49 0.509,-0.503 0.519,-0.511C0.529,-0.52 0.542,-0.53 0.559,-0.543C0.544,-0.549 0.524,-0.552 0.498,-0.552C0.458,-0.552 0.414,-0.544 0.367,-0.528C0.321,-0.512 0.281,-0.493 0.248,-0.471C0.216,-0.449 0.199,-0.43 0.199,-0.415C0.199,-0.407 0.204,-0.401 0.214,-0.396C0.224,-0.391 0.24,-0.387 0.262,-0.384C0.284,-0.381 0.311,-0.379 0.344,-0.378C0.377,-0.377 0.418,-0.377 0.466,-0.377C0.501,-0.377 0.524,-0.376 0.534,-0.373C0.544,-0.37 0.549,-0.364 0.549,-0.355C0.549,-0.343 0.543,-0.329 0.531,-0.314C0.519,-0.298 0.503,-0.289 0.484,-0.286C0.454,-0.281 0.43,-0.277 0.412,-0.274C0.394,-0.27 0.372,-0.264 0.348,-0.256C0.323,-0.248 0.296,-0.236 0.266,-0.221C0.222,-0.198 0.187,-0.174 0.162,-0.15C0.137,-0.126 0.124,-0.104 0.124,-0.086C0.124,-0.07 0.133,-0.058 0.151,-0.049C0.169,-0.04 0.194,-0.035 0.228,-0.035C0.344,-0.035 0.461,-0.087 0.581,-0.191C0.582,-0.159 0.578,-0.131 0.571,-0.107C0.563,-0.082 0.547,-0.059 0.524,-0.037C0.504,-0.019 0.476,-0.001 0.438,0.016C0.401,0.033 0.36,0.047 0.315,0.057C0.271,0.067 0.229,0.072 0.19,0.072C0.145,0.072 0.107,0.061 0.078,0.039C0.048,0.018 0.033,-0.011 0.033,-0.047C0.033,-0.073 0.04,-0.099 0.055,-0.125C0.069,-0.15 0.091,-0.175 0.121,-0.198C0.15,-0.222 0.188,-0.243 0.233,-0.263C0.279,-0.282 0.331,-0.297 0.39,-0.308C0.399,-0.31 0.403,-0.312 0.403,-0.316C0.403,-0.32 0.398,-0.322 0.388,-0.323C0.378,-0.324 0.36,-0.324 0.333,-0.325C0.307,-0.325 0.283,-0.326 0.263,-0.328C0.243,-0.33 0.222,-0.334 0.199,-0.341C0.176,-0.348 0.158,-0.361 0.146,-0.378C0.133,-0.396 0.127,-0.416 0.127,-0.438C0.127,-0.466 0.137,-0.494 0.157,-0.522C0.177,-0.551 0.206,-0.576 0.243,-0.599C0.279,-0.622 0.324,-0.64 0.376,-0.654C0.428,-0.668 0.486,-0.675 0.548,-0.675C0.584,-0.675 0.609,-0.673 0.623,-0.669C0.637,-0.665 0.645,-0.659 0.647,-0.653C0.65,-0.646 0.651,-0.633 0.651,-0.615Z" style="fill:rgb(196,99,46);fill-rule:nonzero;"/>
            </g>
        </g>
        <path d="M70,53L71,52.268L70.866,53.5L72,54L70.866,54.5L71,55.732L70,55L69,55.732L69.134,54.5L68,54L69.134,53.5L69,52.268L70,53Z" style="fill:rgb(12,88,231);fill-rule:nonzero;"/>
        <path d="M114,11L114.5,13.134L116.598,12.5L115,14L116.598,15.5L114.5,14.866L114,17L113.5,14.866L111.402,15.5L113,14L111.402,12.5L113.5,13.134L114,11Z" style="fill:white;fill-rule:nonzero;"/>
        <path d="M16,42L19,45L16,48L13,45L16,42Z" style="fill:rgb(22,199,194);fill-rule:nonzero;"/>
        <path d="M16.785,42.785L19,45L16,48L15.258,47.258C15.28,46.677 15.368,46.086 15.523,45.485C15.778,44.498 16.198,43.598 16.785,42.785Z" style="fill:rgb(61,142,10);fill-rule:nonzero;"/>
        <path d="M20,39L21,41L20,43L19,41L20,39Z" style="fill:rgb(22,199,194);fill-rule:nonzero;"/>
        <path d="M20.349,39.698L21,41L20,43L19,41L19.328,40.344C19.652,40.117 19.993,39.902 20.349,39.698Z" style="fill:rgb(61,142,10);fill-rule:nonzero;"/>
    </g>
</svg>
